PathFileType	4	(X/Y/Z)	Patient4_TMGait_0pt4_02_left_03.trc.trc
DataRate	CameraRate	NumFrames	NumMarkers	Units	OrigDataRate	OrigDataStartFrame	OrigNumFrames
74.074074074074	74.074074074074	4	33	mm	74.074074074074	106	       141
Frame#	Time	Sacral			L.Shoulder			Chest			R.Shoulder			Neck			R.ASIS			L.ASIS			R.Thigh.Superior			R.Thigh.Lateral			R.Thigh.Inferior			R.Patella			L.Thigh.Superior			L.Thigh.Lateral			L.Thigh.Inferior			L.Patella			L.Shank.Superior			L.Shank.Lateral			L.Shank.Inferior			R.Shank.Superior			R.Shank.Lateral			R.Shank.Inferior			R.Heel			R.Midfoot.Superior			R.Midfoot.Lateral			R.Toe			L.Heel			L.Midfoot.Lateral			L.Midfoot.Superior			L.Toe			L.Elbow			L.Wrist			R.Elbow			R.Wrist			
		X1	Y1	Z1	X2	Y2	Z2	X3	Y3	Z3	X4	Y4	Z4	X5	Y5	Z5	X6	Y6	Z6	X7	Y7	Z7	X8	Y8	Z8	X9	Y9	Z9	X10	Y10	Z10	X11	Y11	Z11	X12	Y12	Z12	X13	Y13	Z13	X14	Y14	Z14	X15	Y15	Z15	X16	Y16	Z16	X17	Y17	Z17	X18	Y18	Z18	X19	Y19	Z19	X20	Y20	Z20	X21	Y21	Z21	X22	Y22	Z22	X23	Y23	Z23	X24	Y24	Z24	X25	Y25	Z25	X26	Y26	Z26	X27	Y27	Z27	X28	Y28	Z28	X29	Y29	Z29	X30	Y30	Z30	X31	Y31	Z31	X32	Y32	Z32	X33	Y33	Z33	

106	5.337500000000	881.096322602486	1003.354562000085	540.000543412917	1027.741144066665	1435.459087694806	338.439928334759	1148.338084964571	1375.064719647849	489.837351320815	1079.202519233389	1447.296429647327	670.270191289148	1021.534807256193	1497.707225608798	494.340121893726	1119.673972453304	947.378027482808	637.308909911385	1082.492063004918	968.736554565309	365.653355548789	1142.186730080055	738.490108567599	604.931013582486	1054.980194135716	633.329921314770	670.332894022021	1122.067501034314	576.447878044979	586.828411334136	1114.064411094833	489.654171599225	591.537707201545	1174.205562614853	790.107948693420	389.087840234474	1132.781202250427	662.645527558048	308.165241848681	1242.237424788021	606.620311714668	363.093994364458	1264.326176422912	525.290466259174	352.083350107784	1217.213311623125	451.330960537413	343.312178679399	1095.052955767718	366.427570936046	301.999687116283	1133.945522331363	237.721201523135	346.998209178568	1083.270764430510	402.112933140341	598.288725737538	1010.392408123867	301.295787370815	662.174095794309	1043.169400370753	205.122143218127	595.236227467047	901.901631125305	43.717738193178	570.935747624185	1073.836037326828	96.789684657538	601.118592950653	987.605469729055	37.419468004049	642.828493618384	1195.559443353023	42.451658059416	623.737600203970	984.422756926512	110.277222715637	396.704032930206	1043.462445026979	91.476885670217	307.606780347038	1141.615421898187	132.486510195226	320.632584055466	1247.106013160423	55.288125988486	274.864569500610	962.095307677826	1086.207459328534	231.507745414403	1002.585949383422	826.926018857381	229.057766850239	1149.996171095103	1124.271004881581	819.969285323926	1389.670731627315	1102.311150603706	742.721317871663	
107	5.351000000000	880.327247673783	1003.703463001506	541.002764084573	1027.051260517690	1435.455159031809	339.130503540423	1148.586796852672	1374.332088227860	489.480448228390	1081.215334647549	1446.729684326336	670.510608854487	1022.489399563755	1497.505932055369	495.255599082208	1119.038827437734	946.785877787029	636.849533730721	1080.676039565954	968.614903769514	365.357874653750	1140.010069734734	737.807079149304	604.437619311542	1052.494569636211	633.123604812479	670.346055431671	1118.733035756952	575.869629783910	586.524787204183	1110.241991682404	489.152680106041	591.438957892848	1171.637077702066	789.643366669084	389.805719848961	1131.043366876009	662.696296083387	308.167170217033	1239.089929313679	606.147728866779	365.146356718426	1262.399123318499	526.723130153253	353.533043224965	1218.880953152328	452.577868250778	343.821525236743	1102.688638225869	360.691615310337	300.819700179415	1149.053662789626	234.094107915208	345.727838729142	1079.172256153789	401.781846450901	598.208635786818	1005.991458437480	301.222846226077	662.156809890796	1038.286791362027	204.927120123480	595.193095582083	896.486668595974	43.763663301112	570.964162178205	1068.422838330760	96.655909388683	601.046630742991	982.192275644999	37.417328383438	642.839592072436	1190.145095357487	42.300435322128	623.797346320792	1007.573311607495	96.840660584061	393.724150792987	1068.446731315238	82.443207259023	305.026037267104	1163.699357935876	129.548642488502	318.956662506706	1274.362082572426	59.581061616836	273.748733717390	954.297202568299	1087.313928124122	233.752711992265	990.111731064669	827.321170716609	233.142876691481	1157.719212976155	1124.903303373385	818.660688465766	1396.204447203177	1115.081403998055	737.091180680662	
108	5.364500000000	879.490679136758	1003.926078005396	541.847019601075	1026.397988788129	1435.358372161385	339.629445225803	1148.798240873908	1373.497952037532	488.973321109076	1083.119645024402	1446.045301093984	670.568740706041	1023.434517695711	1497.214303880591	495.999050155519	1118.396912506001	946.130219932261	636.238313020697	1078.816287466616	968.373057701780	364.907480459249	1138.076582616616	737.116461559412	603.852543601020	1050.319296359032	632.838856315470	670.221614405343	1115.749314945765	575.262865150277	586.084311988335	1106.814265794287	488.568361715947	591.201501332449	1168.776652872200	788.763852862405	390.386532522612	1128.875550435026	662.466578381563	307.943812190632	1235.372465916275	605.233138626675	367.076401741802	1259.887359807672	527.814631611554	354.945459568240	1219.928278252704	453.661693370401	344.351554472794	1110.116469176233	355.255816930209	299.319807255197	1163.423016637884	231.156540229617	344.542619303581	1075.384543506278	401.362199280460	598.006503095599	1001.853225960621	301.130261916225	662.071274989817	1033.542951176523	204.676800278552	595.084715014760	891.077926214130	43.821173520209	571.001275849935	1063.019653657551	96.512867023953	600.953923081744	976.787444593015	37.417590586294	642.853025581415	1184.739554146276	42.143749605296	623.864954989383	1030.078846740130	84.985744764665	390.410649675695	1092.920018178090	74.684639796828	302.484822479450	1184.955517533677	127.498993936569	317.627516578489	1300.348001795674	64.572430792017	273.776740257815	946.924291005065	1088.338419639127	236.008983556342	978.292229957145	827.755147635196	236.999541389945	1165.177911586883	1125.372424424464	816.920241516163	1401.864562760389	1127.438549428340	731.242352179139	
109	5.378000000000	878.605012963691	1004.049688753782	542.542108619544	1025.767901361861	1435.195577216035	339.923199606498	1148.959877565951	1372.610441769990	488.311023821072	1084.895093226905	1445.303437224198	670.432423363634	1024.335642674691	1496.872181360415	496.529421907432	1117.764728281598	945.444158736491	635.482994459544	1076.919418842106	968.066752014846	364.306533048570	1136.381656787368	736.428111312865	603.170979917964	1048.421299556208	632.491535505262	669.943248493392	1113.086167361467	574.633591486573	585.502615578739	1103.737485079961	487.916698474913	590.808654344824	1165.691765720577	787.600899920503	390.780697883341	1126.333096212271	662.029969006573	307.508371287696	1231.259894712596	604.031950522676	368.744667901438	1256.934785556846	528.649150049206	356.248529147576	1220.422343662404	454.630716145409	344.872407112877	1117.176952052407	350.311998294094	297.598175619604	1176.747312549843	228.982719149593	343.501835719461	1071.871210878791	400.869557588444	597.674329007410	997.947927626996	301.032446531579	661.909755357826	1028.923807027133	204.387406348767	594.911270613313	885.676705008251	43.897817310107	571.046662793319	1057.631348890772	96.373333108002	600.850248002651	971.391583759610	37.422931508173	642.868235750272	1179.342552460621	41.985362779048	623.937582659135	1051.369992610219	74.929212216995	386.948671638985	1116.287513999244	68.319151258807	300.128438231548	1204.909712334162	126.362577777926	316.708794248761	1324.537536638174	70.114600505814	274.950841848151	940.071292678491	1089.275729087167	238.215695578991	967.199232429987	828.203325204433	240.571079486061	1172.307609433728	1125.714352748219	814.746757202174	1406.654000778144	1139.315223834784	725.221618105359	
